<?xml version="1.0" encoding="UTF-8"?>
<svg id="Warstwa_1" xmlns="http://www.w3.org/2000/svg" version="1.1" viewBox="0 0 255.108 101.099">
  <!-- Generator: Adobe Illustrator 30.1.0, SVG Export Plug-In . SVG Version: 2.1.1 Build 136)  -->
  <defs>
    <style>
      .st0 {
        fill: #fff;
      }
    </style>
  </defs>
  <path class="st0" d="M208.585,40.267c.515.015,1.014.166,1.484.47.484.318.863.697,1.151,1.165l12.722,22.613h26.715l-15.721-27.971c-1.166-2.089-2.59-3.951-4.256-5.57-1.68-1.605-3.543-2.937-5.603-3.996-2.044-1.06-4.21-1.817-6.497-2.241L255.108.036h-30.712l-30.895,20.797V.036h-25.806v64.479h25.806v-24.248h15.084Z"/>
  <path class="st0" d="M164.093,44.541c-.015-2.319-.394-4.5-1.136-6.573-.742-2.074-1.757-3.963-3.044-5.683,1.287-1.72,2.302-3.609,3.044-5.683.742-2.073,1.121-4.253,1.136-6.573-.015-2.78-.53-5.376-1.545-7.788-1.015-2.411-2.423-4.53-4.225-6.359-1.803-1.828-3.893-3.255-6.27-4.285-2.378-1.028-4.938-1.551-7.678-1.566h-59.699v64.507h59.699c2.695-.061,5.24-.614,7.602-1.673,2.377-1.046,4.468-2.489,6.285-4.316,1.802-1.829,3.226-3.932,4.255-6.327,1.031-2.381,1.561-4.946,1.576-7.68M109.573,15.42h25.079c.833.016,1.591.216,2.272.615.682.415,1.227.967,1.636,1.659.409.691.62,1.459.635,2.335-.015.845-.226,1.596-.635,2.273-.409.675-.954,1.228-1.636,1.628-.681.4-1.439.599-2.272.616h-25.079v-9.124ZM109.573,49.149v-9.123h25.079c.833.015,1.591.215,2.272.614.682.4,1.227.953,1.636,1.629.409.676.62,1.428.635,2.273-.015.876-.226,1.644-.635,2.335s-.954,1.244-1.636,1.659c-.681.399-1.439.598-2.272.615h-25.079Z"/>
  <path class="st0" d="M25.806,40.253h14.629c.562,0,1.06.152,1.531.424.454.288.833.651,1.105,1.122l12.721,22.715h26.715l-14.629-26.078c2.468-1.167,4.634-2.666,6.497-4.513,1.862-1.848,3.316-3.938,4.362-6.27,1.044-2.332,1.574-4.831,1.589-7.481-.015-2.817-.545-5.437-1.589-7.86-1.046-2.439-2.5-4.573-4.332-6.421-1.848-1.832-3.999-3.271-6.421-4.317-2.423-1.029-5.043-1.559-7.831-1.574H0v64.514h25.805v-24.261ZM25.806,16.083h24.625c.773.015,1.454.197,2.075.56.606.364,1.09.848,1.454,1.455.363.62.545,1.301.56,2.074-.015.741-.197,1.408-.56,2-.364.605-.848,1.09-1.454,1.453-.621.349-1.302.53-2.075.545h-24.625v-8.087Z"/>
  <path class="st0" d="M12.216,101.096h27.339v-7.92h-22.551c-.769-.007-1.469-.187-2.096-.536-.633-.351-1.141-.829-1.536-1.433-.388-.603-.612-1.29-.664-2.057h17.182v-7.877H12.708v-4.026h26.847v-7.92H0v19.553c.007,1.701.329,3.289.963,4.758.625,1.477,1.498,2.767,2.609,3.886,1.12,1.111,2.409,1.983,3.886,2.61,1.469.634,3.057.955,4.758.962"/>
  <path class="st0" d="M68.394,95.145l14.274-25.812h-12.663l-12.797,23.176c-.21.303-.462.552-.769.741-.313.198-.633.296-.976.305h-.582v-24.222h-12.26v31.765h15.705c1.38-.023,2.715-.273,3.991-.759,1.282-.483,2.445-1.165,3.49-2.044,1.043-.886,1.909-1.931,2.587-3.15"/>
  <path class="st0" d="M97.95,101.096h27.339v-7.92h-22.551c-.769-.007-1.469-.187-2.096-.536-.633-.351-1.141-.829-1.536-1.433-.388-.603-.612-1.29-.665-2.057h17.184v-7.877h-17.184v-4.026h26.848v-7.92h-39.555v19.553c.008,1.701.329,3.289.963,4.758.625,1.477,1.498,2.767,2.609,3.886,1.12,1.111,2.409,1.983,3.886,2.61,1.469.634,3.057.955,4.758.962"/>
  <path class="st0" d="M141.063,81.856l8.636,15.66c.411.732.925,1.373,1.551,1.903.619.537,1.321.947,2.088,1.237.776.291,1.589.44,2.446.44h12.127v-31.769h-12.708v19.24l-8.636-15.66c-.425-.732-.947-1.373-1.58-1.903-.627-.536-1.321-.947-2.089-1.237-.768-.291-1.574-.44-2.416-.44h-12.126v31.769h12.707v-19.24Z"/>
  <polygon class="st0" points="184.4 101.099 197.107 101.099 197.107 77.256 210.531 77.256 210.531 69.337 170.977 69.337 170.977 77.256 184.4 77.256 184.4 101.099"/>
  <path class="st0" d="M223.485,89.149h5.773v.044h9.172c.381.007.717.097,1.022.268.299.18.537.418.716.716.18.292.268.619.276.985-.008.381-.096.717-.276,1.022-.179.298-.417.537-.716.716-.305.178-.641.268-1.022.275h-22.461v7.92h27.249c1.35-.03,2.626-.305,3.819-.828,1.193-.522,2.245-1.237,3.161-2.14.919-.91,1.634-1.953,2.156-3.139.522-1.186.791-2.461.798-3.826-.007-1.372-.268-2.655-.783-3.848-.515-1.193-1.23-2.238-2.133-3.147-.91-.902-1.969-1.603-3.162-2.118-1.193-.507-2.484-.768-3.856-.776h-6.577v-.044h-8.323c-.381-.008-.716-.097-1.021-.268-.298-.18-.537-.419-.716-.717-.179-.291-.269-.618-.277-.984.008-.381.098-.717.277-1.022.179-.298.418-.537.716-.716.305-.179.64-.268,1.021-.275h22.418v-7.921h-27.251c-1.371.007-2.655.268-3.848.776-1.192.514-2.237,1.223-3.139,2.125-.91.91-1.611,1.962-2.125,3.163-.508,1.193-.769,2.482-.776,3.87.007,1.372.268,2.655.776,3.848.514,1.192,1.215,2.238,2.125,3.139.902.91,1.947,1.611,3.139,2.126,1.193.507,2.477.768,3.848.776"/>
</svg>